<?xml version="1.0" encoding="utf-8"?>
<svg version="1.1" xmlns="http://www.w3.org/2000/svg" xmlns:xlink="http://www.w3.org/1999/xlink" x="0px" y="0px"
	 viewBox="0 0 80.8 69" enable-background="new 0 0 80.8 69" xml:space="preserve">
<g>
	<path fill="#B87C3A" d="M60,37c0-1.3-1.2-2.4-2.7-2.5c-1.5-12.6-8.6-22.1-17-22.1c-8.5,0-15.6,9.7-17.1,22.5c-0.1,0-0.1,0-0.2,0
		c-1.7,0-3.2,1.3-3.2,2.9c0,1.6,1.4,2.8,3.1,2.9C23.2,55.3,30.8,67,40.2,67c9.6,0,17.3-12.2,17.3-27.2c0-0.1,0-0.1,0-0.2
		C59,39.3,60,38.2,60,37z"/>
	<path fill="#A96C2F" d="M52.9,24.4c0,7.1-5.5-1.8-12.3-1.8s-12.4,8.9-12.4,1.8s5.5-12.8,12.4-12.8C47.3,11.5,52.9,17.3,52.9,24.4z"
		/>
	<path fill="#E95B0B" d="M23.4,42.4c0,1-0.8,1.8-1.8,1.8s-1.8-0.8-1.8-1.8s0.8-1.8,1.8-1.8C22.6,40.6,23.4,41.4,23.4,42.4z"/>
	<path fill="#E95B0B" d="M61.3,41c0,1-0.8,1.8-1.8,1.8S57.7,42,57.7,41s0.8-1.8,1.8-1.8S61.3,40,61.3,41z"/>
	<path fill="#A96C2F" d="M52.2,43.3c0,2.2-5.2,4.1-11.6,4.1S29,45.6,29,43.3c0-2.2,5.2-4.1,11.6-4.1S52.2,41,52.2,43.3z"/>
	<path fill="#623C2C" d="M65.6,21.2c-3,0.3-1.9,4.1-3.8,3.7c-4.3-0.1-8.5-3.8-8.5-2.6c-0.3,1.4,6.5,8.3,12.5,4.6
		C68.7,25.3,67.4,21.3,65.6,21.2z"/>
	<path fill="#74B62B" d="M53.5,5.1c-4.3,1.1-4.9,6.9-5.7,6.6c-1.1-0.5-3.3-0.1-3.1-1.1c-0.1,0-0.5-8.5-3.2-8.5
		c-2.5-0.3-3.7,2.4-4.1,6.2c-1.4,4.6,2.8,6,6,4.3c0.3,1.2,2.9,3.6,5.5,1c-0.7,1.7,0.6,3,2.8,3.1C54.7,16.6,56.4,5.1,53.5,5.1z"/>
	<path fill="#612818" d="M25.7,20.3c5.3-3.4,7.3-7.5,8.2-6.2c0.8,1.3-1.2,7.2-6.5,10.6s-11.8,2.9-12.6,1.6
		C13.9,25,20.4,23.7,25.7,20.3z"/>
	<path fill="#612818" d="M56.5,15.9c2.8-1,4-2.9,4.4-2c0.3,0.9-1.1,3.9-3.8,4.9c-2.8,1-5.9-0.5-6.2-1.4
		C50.6,16.5,53.8,16.9,56.5,15.9z"/>
	<path fill="#55351C" d="M60.2,19.5c4-0.5,6.3-2.6,6.4-1.4c0.2,1.1-2.6,4.3-6.6,4.9c-4,0.5-7.7-1.8-7.8-2.9
		C52,18.9,56.2,20.1,60.2,19.5z"/>
	<path fill="#55351C" d="M22.7,27.1c4.6-1.6,6.9-4.3,7.3-3.2c0.4,1.1-2.2,5.3-6.8,6.9s-9.4,0.1-9.8-1.1C13,28.6,18.1,28.7,22.7,27.1
		z"/>
	<path fill="#612818" d="M33.3,24.3c1.7-4.6,1-8.1,2.1-7.7c1.1,0.4,2.7,5.1,1,9.6c-1.7,4.6-5.9,7.4-7,7
		C28.2,32.8,31.6,28.9,33.3,24.3z"/>
	<path fill="#623C2C" d="M38.9,29.1c1.2,3.8,3.7,5.6,2.6,5.9c-1.1,0.4-5-1.6-6.2-5.4s0.6-7.8,1.8-8.2C38.2,21.1,37.6,25.4,38.9,29.1
		z"/>
	<path fill="#A8642E" d="M41.3,57.8c1.9,0,3.1-0.9,3.1-0.3c0,0.6-1.5,2.1-3.4,2.1c-1.9,0-3.5-1.5-3.5-2.1S39.4,57.8,41.3,57.8z"/>
	<path fill="#55351C" d="M41.6,25.4c1.3,5.7,3.9,8.9,2.7,9.1c-1.2,0.3-5.2-3.5-6.5-9.2c-1.2-5.6,0.6-11.1,1.8-11.3
		C40.8,13.7,40.3,19.7,41.6,25.4z"/>
	<path fill="#612818" d="M48.5,24.7c3.3,4.4,8.2,5.1,6.4,6.5c-1.9,1.4-9.2,1.5-12.5-2.9s-1.4-11.6,0.4-13
		C44.7,13.8,45.1,20.3,48.5,24.7z"/>
	<path fill="#A8642E" d="M46.8,44.1c-0.1,2.1-2.7,3.7-6,3.6c-3.2-0.1-5.7-1.9-5.7-4.1c0.1-2.1,2.7-3.7,6-3.6
		C44.3,40.2,46.8,42,46.8,44.1z"/>
	<path fill="#BF8339" d="M43.6,48.1c0,0.8-1.1,1.5-2.5,1.6c-1.4,0.1-2.6-0.5-2.6-1.3s1.1-1.5,2.5-1.6C42.4,46.7,43.6,47.3,43.6,48.1
		z"/>
	<path fill="#E65C16" d="M52.3,50.6c0,1.1-4.4,6.6-10.4,6.8c-5.9,0.7-11.6-4.3-12.1-6c0.3-1.1,5.7,5.1,12.1,4.4
		C48.8,55.9,52.2,49.5,52.3,50.6z"/>
	<path fill="#CE481E" d="M25.9,46.2c-0.5,1.6,1,3.6,3.3,4.3c2.4,0.8,5.6-0.6,6.1-2.2c0.5-1.6-1.8-2.8-4.2-3.6
		C28.8,43.9,26.5,44.6,25.9,46.2z"/>
	<path fill="#CE481E" d="M45.6,49.6c0.4,1.7,2.6,2.6,5.1,2c2.4-0.5,4.5-3.4,4.1-5c-0.4-1.7-3-1.5-5.4-1C46.9,46.2,45.2,48,45.6,49.6
		z"/>
	<path fill="#623C2C" d="M36.2,39.2c-0.8,0.5-1.1,1.2-1.3,0.9c-0.2-0.3,0.1-1.3,0.9-1.8s1.9-0.3,2,0C38.1,38.6,37,38.7,36.2,39.2z"
		/>
	<path fill="#623C2C" d="M45.4,38.6c0.4,0.7,0.4,1.3,0.2,1.5c-0.3,0.2-0.8-0.3-1.2-0.9c-0.4-0.7-0.4-1.3-0.2-1.5
		C44.5,37.5,45,37.9,45.4,38.6z"/>
	<path fill="#12100B" d="M42.2,19.2c-0.4,1.9-0.3,4,0.3,6.2c0.8,3.1,2.2,4.7,4.4,4.6c0.4,0,1-0.3,0.5-0.7c-2.8-2.5-4.4-5.9-4.8-10.1
		C42.5,18.9,42.3,18.9,42.2,19.2z M64.6,22.2c-1.5-1-1.7,0.7-1.2,1.4c0.3,0.3,0.9,0.4,0.1,1.1c-3.1,2.1-6.1,0.8-8.9-1.8
		c-1-0.7-1-1-0.4-0.9c3.8,1.4,7.9,1.8,9.3-1.7c0-1.1-1.4,0.4-2.4,1.2c-1.8,1.1-5.3,0.1-7.9-1.8c-0.7-0.5-1.6-1.7,0.7-1.5
		c5.1,0.4,6.9-1.2,5.2-3.9c-0.2-0.6-0.9,0.4-0.7,1.2c0.2,3.1-6.8,1.8-6.4,0.5c2.4-3,3.1-6.4,2.1-10.1c-0.7-1.7-4.3,2.9-5.9,5.5
		c-0.8-0.8-1.6-1.5-3.4-1c-1.1-3.1-2.5-9.4-4-7.9l0,0c-5.5,5.8-3.8,12.3,2.4,10.3c1,0.2-0.1,1.1-0.6,1c-4.1-0.8-7.6,0.3-10.5,3.3
		c-1.4,1.6,0.2,1.4,2,0.3c4.8-3,9.3-2.8,13.4,0.8c2.8,2.4,4.8,5.4,6.2,8.9c4.1,11.5,3.2,22.9-2.3,32.1c-3.1,4.2-6.8,6.1-10.3,6.4
		c-5.4-0.2-10.9-4.3-13.5-11c-2.3-5.7-3.2-13-2.3-19.8c1.9-7.2,3.7-14,6.7-18c0.7-1,0.7-1.4,0.2-0.9c-0.1,0.2-0.2,0.4-0.4,0.5
		c-3.7,5.6-8.7,8.6-14.8,9c-1.2,0.2-1.2,1.2,0.8,1.1c4.1,0.1,7.7-1.6,10.6-5c0.5-0.6,0.5-0.2,0.1,0.6c-0.3,0.7-0.6,1.3-0.9,2
		c-2.6,3.7-7,4.8-11.3,5.6c-0.4,0.1-0.5,0.4-0.2,0.4c3.9,0.9,7.2-0.2,9.7-3c0.4-0.4,0.7-0.1,0.5,0.6c-1,2.4-1.6,5-2,7.6
		c-1.8-0.1-3.4,1-3.5,2.4s1.2,2.6,3,2.8c0,4,1.4,10.4,3.6,15.8c3.1,6.9,8.9,9.8,13.7,9.9c4.8-0.3,10-3.6,12.3-8.2
		c2.7-4.7,4-11.3,4.2-18.8c2.5,0.1,4.1-3.8-0.4-3.7l-1.9-10.4C59.1,28.5,67.6,26.9,64.6,22.2z M43.4,11.8l-4.1-0.7
		c-1.5-0.3,0.2-3.7,1.6-6.2c1.1-1.4,1.7,4,3.2,6C44.5,11.7,44.3,12,43.4,11.8z M46.7,14.4c-3.1,0.1-3-3.3,0.8-1.9
		C48.9,13.7,47.3,14.5,46.7,14.4z M48.3,15.7c-0.7-0.4,0-1.4,0.9-0.9c0.4,0.4,1,0.8,1.7,1.2C51.9,16.9,49.9,16.4,48.3,15.7z
		 M49.1,12.6c0.1-0.7,4-6,3.9-4c0,0.4-0.6,4.6-0.9,6.1C51.8,16.3,48.4,13.5,49.1,12.6z M23.8,39.9c-0.9-0.4-1.5-1.2-1.4-2.1
		c0.1-0.9,0.8-1.6,1.8-1.9C24,37.2,23.8,38.6,23.8,39.9z M57.6,38.7c0-0.4-0.1-1.8-0.2-2.2C59.2,35.9,60.3,38.2,57.6,38.7z
		 M43.1,44.4c0,1.6,0.8,2.9,1.7,2.9c1,0,1.7-1.3,1.7-2.9c0-1.6-0.8-2.9-1.7-2.9C43.8,41.5,43.1,42.8,43.1,44.4z M50.6,29.5
		c0.4,0,1.2-0.2,0.6-0.6c-2.9-2.4-4.5-5.4-4.5-9.1c0-0.3-0.3-0.2-0.4,0.1c-0.7,2.1-0.4,4.3,0.8,6.6C48.1,28.5,49.3,29.5,50.6,29.5z
		 M37.1,23.4c-1.3,3-1.3,6.1-0.1,9.2c0.1,0.3,0.6,1,0.7,0.1c0.2-2.9,0.1-5.9-0.3-9.1C37.4,23.3,37.2,23.2,37.1,23.4z M35.3,39.6
		c0,0.1,0,0.2,0.1,0.1c0.5-0.4,1.1-0.7,1.5-1.3c0.1-0.1,0-0.2-0.1-0.2C36.3,38.3,35.5,38.9,35.3,39.6z M35.5,20.8
		c-0.3,4.1-1.7,7.7-4.3,10.8c-0.6,0.7-0.1,0.7,0.7,0.2c3.5-2.9,4.9-6.6,4.2-11C35.9,19.3,35.5,20.1,35.5,20.8z M36.9,41.2
		c-1,0-1.7,1.3-1.7,2.9c0,1.6,0.8,2.9,1.7,2.9c1,0,1.7-1.3,1.7-2.9S37.8,41.2,36.9,41.2z M29.4,49.9c-0.6,0.9-0.6,1.8-0.1,2.5
		c0.6,0.3-0.1-1.1,0.7-0.8c7.3,6.1,14.6,6.3,22.3-0.1c0.4-0.2,0.1,1.1,0.9,0.9c0.5-0.3,0-3.2-1-3.3c-0.6,0,0.3,0.8-0.2,1.5
		c-7,6.5-14.3,6.6-21.9,0.6c-0.2-0.2-0.2-0.5-0.1-0.9C30.1,49.9,29.9,49.4,29.4,49.9z M39.7,48.2c-1.2,0.7,3.2,1.6,3.2,0.6
		C42.5,48,40.7,47.7,39.7,48.2z M39.6,22.7c-1.6,4.3-1,7.3,1.8,9.1c0.8,0.5,0.6-0.4,0.6-0.4l-2-8.8C40,22.7,39.9,22.2,39.6,22.7z
		 M38.8,57.2c-0.8-0.3-0.9,0-0.2,0.8c1,1.1,3.6,1.4,4.7,0c0.3-0.3,0.7-1-0.3-0.6C42,57.9,39.9,57.9,38.8,57.2z M44.2,38.3
		c0,0.9,0.4,1.4,1.2,1.5c0.1,0,0.2,0,0.2-0.2c-0.2-0.6-0.6-1.2-1.1-1.5C44.4,38,44.2,38,44.2,38.3z M22.2,40.9
		c-0.8,0-1.4,0.6-1.4,1.4c0,0.8,0.6,1.4,1.4,1.4s1.4-0.6,1.4-1.4S23,40.9,22.2,40.9z M59.4,39.7c-0.8,0-1.4,0.6-1.4,1.4
		c0,0.8,0.6,1.4,1.4,1.4c0.8,0,1.4-0.6,1.4-1.4S60.1,39.7,59.4,39.7z"/>
	<path fill="#77BF91" d="M43.4,10.6c0,0.7-2.1-0.1-2.8-0.3c-1-0.3-1.3-3.2,0.7-3.2C42.2,7.3,43.4,9.9,43.4,10.6z"/>
	<path fill="#77BF91" d="M49.5,13.1c-0.3-0.2,1.8-2.9,2.1-3.1c0.4-0.2,0.7,3.5,0.1,4.2C51.3,14.4,49.7,13.3,49.5,13.1z"/>
	<path fill="#77BF91" d="M47.5,13c0,0.3-0.4,0.6-0.9,0.6s-1-0.3-1-0.6s0.4-0.6,0.9-0.6S47.5,12.7,47.5,13z"/>
	<path fill="#D7593A" d="M52.9,47.3c0,0.8-1,1.5-2.3,1.5s-2.3-0.7-2.3-1.5s1-1.5,2.3-1.5C51.8,45.8,52.9,46.5,52.9,47.3z"/>
	<path fill="#D7593A" d="M33.3,46.9c-0.2,0.7-1.2,1-2.3,0.7c-1.1-0.3-1.8-1.1-1.6-1.8c0.2-0.7,1.2-1,2.3-0.7
		C32.7,45.4,33.5,46.2,33.3,46.9z"/>
	<path fill="#12100B" d="M32.4,41.3c0.1-0.1,0.7,1.4,1.7,2.1c1,0.8,2.1,0.5,2,0.6c-0.1,0.1-1,0.6-2-0.1
		C33.1,43.1,32.4,41.4,32.4,41.3z"/>
	<path fill="#12100B" d="M33.8,40.7c0.1,0,0.3,1.1,0.9,1.8c0.6,0.7,1.4,0.7,1.3,0.7c-0.1,0-0.8,0.3-1.4-0.4
		C34,42.1,33.7,40.8,33.8,40.7z"/>
	<path fill="#12100B" d="M34.5,40.6c0-0.1,0.4,0.9,1.1,1.4c0.6,0.5,1.3,0.3,1.3,0.4c0,0.1-0.6,0.4-1.3-0.1
		C34.9,41.8,34.4,40.6,34.5,40.6z"/>
	<path fill="#12100B" d="M36.4,40.2c0.1,0-0.2,1,0,1.7c0.2,0.8,0.8,1.1,0.7,1.1s-0.7-0.1-0.9-0.9C36,41.4,36.4,40.2,36.4,40.2z"/>
	<path fill="#12100B" d="M35,46.6c0-0.1,0.8,0.6,1.6,0.7c0.8,0.1,1.3-0.4,1.3-0.3c0,0.1-0.3,0.6-1.1,0.5S35,46.6,35,46.6z"/>
	<path fill="#12100B" d="M38.6,41.1c0,0-0.2,0.5-0.6,0.7c-0.4,0.2-1-0.1-1,0c0,0,0.6,0.4,1,0.2C38.5,41.8,38.7,41.1,38.6,41.1z"/>
	<path fill="#12100B" d="M49.3,41.4c-0.1-0.1-0.7,1.4-1.7,2.1c-1,0.8-2.1,0.5-2,0.6s1,0.6,2-0.1C48.6,43.3,49.3,41.5,49.3,41.4z"/>
	<path fill="#12100B" d="M47.9,40.9c-0.1,0-0.3,1.1-0.9,1.8c-0.6,0.7-1.4,0.7-1.3,0.7c0.1,0,0.8,0.3,1.4-0.4
		C47.7,42.3,48,40.9,47.9,40.9z"/>
	<path fill="#12100B" d="M47.2,40.8c0-0.1-0.4,0.9-1.1,1.4c-0.7,0.5-1.3,0.3-1.3,0.4c0,0.1,0.6,0.4,1.3-0.1
		C46.8,41.9,47.3,40.8,47.2,40.8z"/>
	<path fill="#12100B" d="M45.3,40.4c-0.1,0,0.2,1,0,1.7c-0.2,0.8-0.8,1.1-0.7,1.1s0.7-0.1,0.9-0.9C45.7,41.5,45.3,40.4,45.3,40.4z"
		/>
	<path fill="#12100B" d="M46.6,46.7c0-0.1-0.8,0.6-1.6,0.7c-0.8,0.1-1.3-0.4-1.3-0.3c0,0.1,0.3,0.6,1.1,0.5
		C45.7,47.5,46.6,46.8,46.6,46.7z"/>
	<path fill="#12100B" d="M43,41.3c0,0,0.2,0.5,0.6,0.7c0.4,0.2,1-0.1,1,0c0,0-0.6,0.4-1,0.2C43.1,42,43,41.3,43,41.3z"/>
</g>
</svg>
