<?xml version="1.0" encoding="utf-8"?>
<svg version="1.1" xmlns="http://www.w3.org/2000/svg" xmlns:xlink="http://www.w3.org/1999/xlink" x="0px" y="0px"
	 viewBox="0 0 80.9 68.9" enable-background="new 0 0 80.9 68.9" xml:space="preserve">
<g>
	<path fill="#FFE064" d="M38.2,19.5c5.4,2.5,6.7,11.1,3,19.1c-3.8,8-11.2,12.5-16.6,10s-6.7-11.1-3-19.1
		C25.4,21.4,32.8,16.9,38.2,19.5z"/>
	<path fill="#FFE5B8" d="M61.7,43.9c0,10.5-8.5,19.1-18.9,19.1c-10.5,0-18.9-8.5-18.9-19.1c0-10.5,8.5-19.1,18.9-19.1
		c7.3,0,13.6,4.2,16.8,10.3c-3.1,1.3-2.5,3.2,1.9,5.7C61.6,41.8,61.7,42.9,61.7,43.9z"/>
	<path fill="#FCD9B3" d="M46.8,24.9c8,2.4,13.4,8,12.1,12.4c-1.3,4.4-8.9,6.1-16.9,3.6c-8-2.4-13.4-8-12.1-12.4
		C31.2,24.1,38.7,22.5,46.8,24.9z"/>
	<path fill="#FFE064" d="M28.3,45.3c3,6.3-0.9,14.4-11.2,13.1C9.9,57.3,5.2,49.9,5.5,44.8c0.1-5.4,4.9,0.3,11.2,0.4
		C23,45.3,28.4,39.9,28.3,45.3z"/>
	<path fill="#FFE064" d="M64.1,30c0,6-7.1,9.4-16,9.4c-8.9-0.6-18.8-7-18.8-13c0-5.9,7.2-10.8,16.1-10.8C54.3,15.7,64.1,24,64.1,30z
		"/>
	<path fill="#FFE064" d="M68.8,38.2c-7,8.5-12.7,0.8-16.3-3.2c-4-3.6,3.4-3.5,7.6-8.2c2.5-1.9,4.9-2.4,6.3-3
		c1.4-1.8-0.6-4.2,3.2-3.7c4.1,0.3,8.6,3.8,1.6,10.3C69.6,32.1,71.1,34.3,68.8,38.2z"/>
	<path fill="#FCD9B3" d="M50.9,58.4c-4.5-2.1-7.6-6.2-7.6-10.9c0.4-7.1,6.8-12.5,13.9-11.9c0.4,1.6,1.2,3.6,2.1,4.8
		C62.5,46.5,54.2,58.9,50.9,58.4z"/>
	<path fill="#F4BE97" d="M58.3,39.6c0.9,2.6-1.6,5.8-5.5,7.1s-9.1-1-9.9-3.6c-0.9-2.6,2.9-4.6,6.8-5.9C53.6,35.9,57.4,37,58.3,39.6z
		"/>
	<path fill="#F4BE97" d="M33.8,50c1,3.2,0.3,6.3-1.7,6.9c-2,0.7-5.5-3-6.5-6.2s0.8-4.6,2.8-5.3S32.8,46.8,33.8,50z"/>
	<path fill="#FFE064" d="M15.6,31.7c0,3.3-1.9,7.7-5.6,7.7c-3.8,3.9-6.8-1.1-6.8-6c-1.1-5.7-1.7-13.2,4.2-3.5
		C7.5,30.1,8,30.5,8,29.7c0-1.6-0.5-5,1.4-5.7c1.6-0.5,2.4,2.2,2.4,4.5c0,0.3,0.1,0.7,0.9,0C13.8,27,15,24.4,15.6,31.7z"/>
	<path fill="#FFE064" d="M77.4,11.3c0,3-3,5.5-6.7,5.5S64,14.4,64,11.3c0-3,3-5.5,6.7-5.5C74.3,5.9,77.4,8.3,77.4,11.3z"/>
	<path fill="#E20D18" d="M12.8,42.1c0,1.5-1.4,2.6-3.2,2.6s-3.2-1.2-3.2-2.6s1.4-2.6,3.2-2.6C11.3,39.4,12.8,40.6,12.8,42.1z"/>
	<ellipse fill="#FCD9B3" cx="38.3" cy="46" rx="3" ry="2.2"/>
	<ellipse fill="#FFF197" cx="45.8" cy="24.8" rx="11.6" ry="7.2"/>
	<path fill="#F7CE41" d="M66.2,30.3c1,0.7,0.9,2.6-0.2,4.3c-1.2,1.7-2.9,2.4-4,1.7c-1-0.7,1.1-1,2.2-2.7
		C65.5,31.9,65.2,29.5,66.2,30.3z"/>
	<path fill="#F7CE41" d="M46.8,27.2c-0.1,1.5-3.2,2.5-6.8,2.3c-3.6-0.3-6.5-1.8-6.3-3.3c0.1-1.5,2.6,0.6,6.2,0.9
		C43.5,27.3,46.9,25.7,46.8,27.2z"/>
	<path fill="#F7CE41" d="M55.2,24c0.4,0.9-1.1,2.4-3.3,3.2c-2.2,0.8-4.3,0.8-4.6-0.1c-0.4-0.9,1.7-0.4,3.9-1.2
		C53.3,25,54.8,23.1,55.2,24z"/>
	<path fill="#F7CE41" d="M63.2,33.3c0.1,3-7.5,4.6-14.5,4.9s-13.9-2.7-14-5.7c-0.1-3,6.6,3.7,13.6,3.4
		C55.4,35.7,63.1,30.3,63.2,33.3z"/>
	<path fill="#F7CE41" d="M27.8,42.2c-1.5-0.3-2.2-3.4-1.5-7s2.4-6.2,4-6c1.5,0.3-0.9,2.5-1.5,6.1C28,38.9,29.3,42.4,27.8,42.2z"/>
	<path fill="#FFF197" d="M22.5,38.9c-1.5-0.5-1.7-3.7-0.6-7.1s3.3-5.8,4.7-5.4c1.5,0.5-1.2,2.4-2.3,5.8
		C23.1,35.7,23.9,39.4,22.5,38.9z"/>
	<path fill="#F7CE41" d="M78,7.5c1.3,0.9,0.6,4-1.4,7c-2.1,3-4.8,4.7-6,3.8c-1.3-0.9,1.8-2,3.9-5C76.5,10.4,76.7,6.6,78,7.5z"/>
	<path fill="#F7CE41" d="M14.4,27.8c1.4,0.6,1.5,3.8,0.2,7.1c-1.3,3.4-3.5,5.7-5,5.1c-1.4-0.6,1.3-2.3,2.6-5.7
		C13.5,31,12.9,27.2,14.4,27.8z"/>
	<path fill="#F7CE41" d="M26.5,52.5c0,1.8-2.4,3.3-5.2,3.3c-2.9,0-5.2-1.5-5.2-3.3s2.1,0.4,5,0.4C23.9,52.9,26.5,50.6,26.5,52.5z"/>
	<path fill="#F7CE41" d="M14.8,54.1c-1,0.7-2.8,0.1-4-1.5s-1.4-3.5-0.4-4.2s0.6,1.3,1.8,2.9C13.5,52.9,15.8,53.4,14.8,54.1z"/>
	<path fill="#D96324" d="M49.9,51.2c0,1.5-3,3.9-4.3,3.9s-1.5-1.7-1.5-3.2s3.4-5.1,4.7-5.1C50.1,46.7,49.9,49.6,49.9,51.2z"/>
	<path fill="#EE774B" d="M49.1,52.5c0,0.8-1.6,2.1-2.4,2.1c-0.8,0-1.3-0.3-1.2-1.4c0.2-1.8,3.3-4,4-3.8
		C50.4,49.4,49.1,51.7,49.1,52.5z"/>
	<path fill="#F7CE41" d="M50.3,25.5c0.8,1.5,0.6,3.2-0.5,3.8c-1.1,0.6-2.6-0.2-3.4-1.7c-0.8-1.5-0.6-3.2,0.5-3.8
		C47.9,23.3,49.5,24,50.3,25.5z"/>
	<path fill="#E20D18" d="M43.5,20.4c-1.6,0.9,0.3,4.5,1.8,7.2s4.1,6.1,5.7,5.2c1.6-0.9,2.2-5.8,0.7-8.6
		C50.1,21.6,45.1,19.6,43.5,20.4z M49.1,29.2c-1,0.5-1.4-0.9-2.3-2.6c-0.9-1.7-2-2.9-1-3.4s2.5,0.4,3.4,2
		C50.2,26.9,50.1,28.7,49.1,29.2z"/>
	<path fill="#E20D18" d="M73.2,19.4c0,1.6-1.4,3-3.2,3c-1.8,0-3.2-1.3-3.2-3c0-1.6,1.4-3,3.2-3C71.8,16.4,73.2,17.7,73.2,19.4z"/>
	<path fill="#E84C5A" d="M71.7,18.8c0,0.4-0.6,0.8-1.3,0.8c-0.7,0-1.3-0.3-1.3-0.8c0-0.4,0.6-0.8,1.3-0.8S71.7,18.3,71.7,18.8z"/>
	<path fill="#E84C5A" d="M9.8,42.1c0,0.4-0.6,0.8-1.3,0.8s-1.3-0.3-1.3-0.8c0-0.4,0.6-0.8,1.3-0.8C9.3,41.3,9.8,41.6,9.8,42.1z"/>
	<path fill="#EEBA85" d="M34.3,40.8c0.8,2,1.3,3.6,0.2,4.1c-1.1,0.4-2.6-0.8-3.4-2.7c-0.8-2-0.5-3.9,0.6-4.4
		C32.8,37.3,33.5,38.8,34.3,40.8z"/>
	<path fill="#EEBA85" d="M40.2,38.5c0.8,2,1.3,3.6,0.2,4.1c-1.1,0.4-2.6-0.8-3.4-2.8c-0.8-2-0.5-3.9,0.6-4.4
		C38.7,35,39.4,36.5,40.2,38.5z"/>
	<path fill="#12100B" d="M30.3,23.4c4.5-6.3,10.6-7.9,18.3-5c7.1,2.7,12.1,7.3,15.1,13.8c0.2,0.5,0.5,0.5,0.3-0.2
		c-0.2-0.9-0.5-1.8-1-2.8c-0.4-0.7,0.6-0.4,1.8,0.1c0.9,0,0.9-0.5-0.3-0.8c-1.4-0.5-1.8-0.9,0.7-2c2.3-0.8,3.2-2.2,2.9-4.2
		c-0.1-1.5-0.7-1.9-0.8,0.4c0.4,2.3-2.7,2.1-3.9,3c-0.9,1-1.8,0.5-2.1-0.1c-1.4-2.2-3.1-4.1-5.3-5.6c-11.2-7.7-19.8-6.6-26,3.4
		C29.8,23.8,29.9,24,30.3,23.4z M69.5,25c0.2-0.1,1.1-1,0.8-1.5c-0.3-0.6-1.5-0.7-1.8-0.5c-0.2,0.1,1,0.3,1.3,0.9
		C70.1,24.4,69.2,25.1,69.5,25z M49.8,29.7c0.8-0.4,0.5-2.5-0.2-4c-0.8-1.5-3.1-3.2-3.9-2.8c-0.8,0.4,0.3,2.8,1.1,4.3
		C47.5,28.7,49,30.1,49.8,29.7z M47.2,27c-0.6-1.1-1.3-2.9-0.7-3.2c0.6-0.3,2.2,1.1,2.7,2.1c0.6,1.1,0.6,2.2,0,2.4
		C48.6,28.6,47.7,28,47.2,27z M67.7,25.8c0.2,0.3,1.6,1.2,2.6,0.6s1.3-2.4,1.1-2.7c-0.2-0.3-0.6,1.5-1.6,2.1
		C68.7,26.4,67.5,25.5,67.7,25.8z M44.2,27.6c-3.3,0.3-6.6-0.1-9.7-1.1c-0.5-0.2-0.5,0.1,0,0.3c3.1,1.7,6.5,2.5,10.3,2.2
		c1.2,0,1.4,0.5,1.4,0.5l1,1.9c0.4,0.8,3.9,2.5,4.8-1c0.4-1.4,0-3.1,1.5-4.3c1.4-1.4,1.4-2.6,0.1-1.4c-0.9,0.8-1.8,1.7-2.1,0.9
		c-1.2-2.7-3.2-4.3-6-5c-1.4-0.2-2.6,1.6-2,3.1l1.1,2.3C44.7,26.1,45.6,27.5,44.2,27.6z M44.5,24.3c-0.9-1.4,0.8-3.3,2.5-2.2
		c1.9,1.2,3.3,3.5,3.9,6.2c0.8,3-3.1,3-3.6,1.6C46.6,28.4,45.7,26.6,44.5,24.3z M31.4,52.1c-0.6-0.5,0.5-1,0.3-1.2
		c-0.9-0.1-1.3,2.2-0.7,2.9c0.1,0.2,0.3,0,0.3-0.1c-0.1-0.5-0.3-1.1,0.2-0.9c0.3,0.2,4.4,2.1,8.1,0.8c0.6,0.5,3.5,1.6,4.2,1.6
		c0.9,0.5-1.1,0.8-2.3,1.2c-0.8,0.3,1.3,0.3,2.7,0.1c6-1.6,7.5-5,5.2-10.1c-0.4-0.8,0.2-1.6,0.7-2.3c0.8-0.9,1.8,0.9,1.5,0.1
		c-0.5-1.4-1.2-2.4-3-2.4c-0.6,0.2,0.9,0.5,0.6,1.6C47.8,49.6,37.1,56,31.4,52.1z M40.8,53.1c3.4-1,6.1-3.1,8-6.4
		c1.2,2.5,1.1,4.9-0.9,6.6c-0.9,0.7-3.3,1.9-3.4-0.1c-0.2-1.6,0.3-2.5,0.5-2.5c-0.8,0-1.4,1.2-1.2,3.7
		C41.8,54.2,40.2,53.4,40.8,53.1z M31.4,38.1c-0.8,0.3-1.4,2.3-0.6,4.3c0.8,2.1,2.7,3.5,3.5,3.2s0.4-2-0.4-4.1
		C33.1,39.4,32.2,37.8,31.4,38.1z M77.4,7.8c-0.5-0.6-1.6-0.2-3.3,0.8C73,8.9,72.6,6.8,71.5,6c-0.5-0.2-0.6,0.2-0.6,0.8
		c0.3,2.1,0.3,3.8-0.4,4.6c-0.4,1.1-5.3-5.1-6.5-3.3c-1.9,2.2-0.8,7.8,3.4,9.4c0.8,0.4,0.2,1.5,0.3,1.9c0.6,2.3,1.8,3.1,3.7,2.4
		c1.7-0.8,1,4.6-0.6,6.9c-1.1,1.8-1.6,1.3-1.7,1c-0.3-0.7-0.7-1.3-1.3-1.9c-0.6-0.6-0.8-0.4-0.6,0.4c2.4,8-1,11.3-5.1,10.3
		c-3.7-0.8-4.4-1.3-3.5-1.8c3.2-1.3,4.9-4.3,1.6-2.7c-11.1,6.7-20.3,4.8-27.6-5.7c-0.3-0.4-0.4-0.3-0.2,0.2
		c4.5,9.6,12.3,12.8,23.5,9.5c1.2-0.2,2.1,0.2,2.4,3.1C62,62.4,29.7,67.4,26,48.8c-0.2-2.1-0.3-1.3-0.5-0.8c0,0.5,0.3,1.6-0.6,1.6
		c-3.2-0.1-3.6-5.6,0.3-4.2c0.3,0.1,1.1,0.2,0.9-0.6c-0.4-2.1-0.5-4.2-0.1-6.3c0.3-1.2,0.3,2,1.6,3.6c0,0,0.3,0.5,0.2-0.2
		c-0.7-2.6-2-5.7-0.2-7.8l2.4-3.2c0.2-0.3,0.1-0.3-0.1-0.1l-2.3,2.3c-0.9,0.9-0.3-2.1,0-4.6c0-0.3-0.1-0.3-0.2-0.1
		c-1.7,4.2-3,8.6-2.6,13.1c0,0.9,0.8,2.9-0.9,2.8c-0.3,0-0.6,0.1-0.8,0.2c-0.6,0.5-1.2-1.1-1.5-1.9c-2-7.1-0.6-13.6,4.1-19.4
		c0.3-0.4,0.3-0.7,0-0.4c-5.7,4.7-7.5,10.7-5.5,18c0.5,1.2,0,2.6-0.2,3c-1.1,2.1-2.5,3.8-5.1,4.6c-0.5,0.2-0.5,0.5-0.1,0.5
		c2.8,0,4.7-1.3,5.6-3.7c0.9-1.6,1.8,0.2,1.8,0.2c-0.9,1.5-0.3,5,2.4,5.2c1-0.1,1.2,1.5,1.5,2.3c0.4,1.2-1.1,2.5-1.5,2.5
		c-3.1,0.7-5.9,0-8.6-1.9c-0.7-0.5-0.9-1.7-1.1-1.8c-0.5-1-0.9,0.5-0.2,1.9c0.3,0.5-0.1,1-0.4,0.9c-2.9-0.3-4.4-2.1-4.5-5.4
		c-0.1-0.8-0.2-1.6-0.6-0.2C9.1,49.1,9,49.5,8,49c-2.6-1.4-4-4.7-0.2-4.1C8.5,45,8,44.6,7.1,43.7c-0.5-0.7-0.5-1.4,0-2
		c2.1-2.4,5.1-0.5,3.5,1.9C10.2,45,7,42.6,8,44.3C8.5,45,9.8,45,9.4,45.6c-1.1,2,2.4,3.4,4.6,2.7c1.1-0.2,0.8-0.6-0.1-0.6
		c-2.7,0-4.6-1.2-3.6-2.4c1.2-1,1.6-2.1,1.5-3.5c0.2-0.6-0.2-1.6,0.5-2.3c2-2.3,4.3-9.4,2.3-11.8c-0.8-0.7-3.3,2.7-3,1.1
		c0-1.7-0.6-3.1-1.7-4.3c-1.3-0.7-2.2,3-1.8,6c0.1,0.6-0.1,0.8-0.4,0.3c-0.9-1.4-2-2.7-3.1-3.8c-3.2-3.1-3.3,9.2,1.5,14
		c-0.6,0.8-0.4,2,0.2,2.4c0.8,0.7,0.2,0.9-0.5,1.2C3.9,46,6,49.9,8.2,50c1-0.1,1.4,0.8,1.3,1.5c0.6,2.9,2.6,4.1,5.7,3.4
		c0.6-0.2,1.3,0.3,1.6,0.5c3.2,2.3,6.4,2.3,9.7,0.1c0.8-0.4,1.4,0.5,1.8,1C43.7,68.6,60.9,57.6,60,42.6c6.7-1.6,9.9-5.4,9.5-11.3
		c3.7-2.9,4.7-6.4,2.8-10.5c0.4-0.8,0.5-1.5,0.6-2.1c0-0.3-0.1-0.7,0.8-1C76.3,17.2,79.7,11.9,77.4,7.8z M5.5,39
		c-2.1-3.2-2.1-10.4-2-10.7c0.2-2.2,3.6,4.5,5.2,5.6c0.3,0.2,1.1,0.5,1-0.9c-0.1-2.9-0.6-8.3,0.2-6.4c0.1,0.1,0.7,5.7,1.9,4.2
		c1-1,2.6-3.3,2.5-1.6c0.1,3.9-2,10.4-3.6,10C9.8,39,8.2,38.7,7,39.6C6.4,40.1,5.8,39.5,5.5,39z M68.9,20.6c-1.7-1.8,1-3.7,2.5-2.8
		C72.9,18.6,71.4,22.5,68.9,20.6z M76.9,12.1c-0.9,5-4.3,4.9-4.4,5.2c-0.7-1-2.2-1.1-3.2-0.4c-0.9,0.5-1.6,0.3-1.9,0.1
		c-2.3-1.4-4.5-6.2-2.8-8.1c1-0.8,3.9,2,5,4c0.1,0.3,0.4,0.8,1.3,0.1c1.2-1.8,0.7-6.2,1.4-4.3C73.9,11,78,5.4,76.9,12.1z M36.3,46.2
		c1.3,0.1,1.9-0.4,1.9-1.5c0-0.1,0-0.1,0-0.2C37.1,44.7,36.5,45.2,36.3,46.2z M40.1,43.2c0.8-0.3,0.4-2-0.4-4.1
		c-0.8-2.1-1.7-3.7-2.4-3.4C36.5,36,35.9,38,36.7,40C37.5,42.1,39.4,43.5,40.1,43.2z M65.1,33.1c-0.5,1.2-1.6,2.1-1.2,2.2
		c0.3,0.1,1.7-0.5,2.2-1.7S66,31.1,65.6,31C65.3,30.9,65.6,31.9,65.1,33.1z"/>
</g>
</svg>
