<?xml version="1.0" encoding="utf-8"?>
<svg version="1.1" xmlns="http://www.w3.org/2000/svg" xmlns:xlink="http://www.w3.org/1999/xlink" x="0px" y="0px"
	 viewBox="0 0 80.8 68.9" enable-background="new 0 0 80.8 68.9" xml:space="preserve">
<g>
	<path fill="#A56219" d="M62.6,24.8c-0.1,0-0.5,0.4-0.2-0.3c0.2-1.9-1.1-1.4-2.3,0.2c-0.8,0.6,0.7-2.1-0.3-2.3
		c0.8-1.2,1.3-2,0.6-1.5c-0.2,0-0.6,0.5-0.2-0.3c0.2-2.2-1.3-1.6-2.7,0.2c-0.9,0.7,1.1-2.9-0.7-2.6c-1.1,0.4-3.1,2.4-0.7-1.2
		c0.7-1.6-3.8-0.4-3.5,2.4c-0.8,0.6-1.5,1.1,0.3,1.6c0.1,0.1,0.3,0.2,0.2,0.4c-0.7,1.4-0.8,3,0.5,2.2l1.4-1c1.1-0.4-0.9,2.1-1.2,3.3
		c0.1,1,1.5-0.6,2.1-1c0.1,0,0.1,0,0.2,0.1c0,0,0.1,0,0.1,0.1l0,0c-0.2,0.5-0.3,0.9-0.3,1.3c-0.2,0.8,0,1.4,0.8,1l1.2-0.9
		c1-0.4-0.8,1.8-1.1,2.9c0.1,1.2,2.4-1.9,2.2-0.8c-0.4,1.2-0.4,2,0.4,1.3C60.8,28.1,63.8,23.9,62.6,24.8z"/>
	<path fill="#F4BE97" d="M62.1,32.7c-1.5-9.2-11.5-16.6-19.9-17.2C25,15.5,21.4,24.3,21,34.9c-2-1.7-5-0.2-5,2.6
		c0,2,1.6,3.6,3.5,3.6c0.6,0,1.2-0.2,1.7-0.5c1.7,10.2,9.8,19.8,20.3,19.8c14.3-0.5,20.3-8.8,21.5-21.2c1.5,0,3.4-1.8,3.4-3.7
		C66.5,32,63.6,32.1,62.1,32.7z"/>
	<path fill="#EDAA80" d="M51.6,19.4c0.3,2-6-2.2-13.4-1.1c-7.4,1-13.2,6.9-13.5,4.9c-0.3-2,5.2-5.4,12.6-6.4
		C44.7,15.7,51.3,17.4,51.6,19.4z"/>
	<path fill="#814716" d="M49.3,13.4c0.5-2.8-0.2-4.7,0.5-4.6c0.7,0.1,2.1,2.7,1.6,5.5s-2.7,4.8-3.5,4.6
		C47.2,18.8,48.8,16.2,49.3,13.4z"/>
	<path fill="#814716" d="M59.8,23.5c1.3-0.6,1.9-1.6,2.1-1.2c0.2,0.4-0.3,2-1.7,2.6c-1.3,0.6-2.9,0.1-3.1-0.3
		C56.9,24.1,58.5,24.2,59.8,23.5z"/>
	<path fill="#A56219" d="M28.1,12.1c-0.1,0.1-0.2,0.3-0.4,0.1c-1.4-1.2-2.9-1.7-2.3,0l0.8,1.9c0.3,1.5-2-1.6-3.2-2.4
		c-1.3-0.2,1.9,3.9,0.7,3.2c-1.3-0.9-2.2-1.1-1.6,0.2c1.6,2.6,6,7.9,5.1,6c0-0.2-0.4-0.8,0.4-0.2c2.2,0.8,1.8-1.1,0.1-3.2
		c-0.6-1.3,2.8,2.1,2.8-0.2c-0.3-1.4-2.1-4.3,1.3-0.6c1.6,1.3,0.9-4.5-2-4.8C29.3,11.1,28.9,10.1,28.1,12.1z"/>
	<path fill="#A56219" d="M36.7,10.7c-0.1,0.1-0.3,0.2-0.4,0c-1-1.5-2.4-2.4-2.2-0.5l0.4,2.1c-0.1,1.5-1.5-2.1-2.6-3
		c-1.4-0.7,0.7,4-0.2,3.1c-1-1.2-1.9-1.7-1.6-0.2c1,2.9,4,9.1,3.5,7.1c0-0.2-0.2-0.9,0.4-0.1c2,1.3,2-0.6,0.9-3.1
		c-0.3-1.4,2.2,2.7,2.7,0.5c0.1-1.4-1-4.7,1.4-0.2c1.2,1.6,1.9-4.1-0.8-5.1C38,10,37.8,8.9,36.7,10.7z"/>
	<path fill="#A56219" d="M40.3,13.8c0.1,0,0.3,0.1,0.3,0.3c-0.1,1.6,0.3,3,1.3,1.9l0.9-1.4c0.9-0.8-0.1,2.2,0.1,3.6
		c0.6,1.2,1.8-3,2-1.7c0,1.4,0.4,2.3,1,1.2c1-2.3,2.5-8,1.6-6.5c-0.1,0.1-0.4,0.7-0.4-0.2c-0.6-2.1-1.8-1.1-2.4,1.1
		c-0.6,1,0-3.1-1.6-2.2c-0.9,0.8-2,3.4-1.1-0.9c0.1-1.8-3.7,1-2.4,3.4C38.9,13.3,38.4,14,40.3,13.8z"/>
	<path fill="#A56219" d="M20.6,20.8c0,0.1,0,0.3-0.3,0.3c-1.6,0-3,0.5-1.8,1.4l1.5,0.8c0.9,0.9-2.2,0-3.6,0.3
		c-1.2,0.7,3.1,1.6,1.9,1.8c-1.4,0.2-2.2,0.7-1.1,1.2c2.4,0.8,8.1,1.9,6.6,1.1c-0.1-0.1-0.7-0.3,0.2-0.4c2.1-0.8,0.9-1.9-1.3-2.3
		c-1.1-0.5,3.1-0.2,2.1-1.8c-0.8-0.8-3.5-1.7,0.8-1.2c1.8,0-1.3-3.6-3.6-2.2C21,19.5,20.2,19,20.6,20.8z"/>
	<path fill="#EDAA80" d="M54.5,31.1c0.5,3.3-5.2-0.7-12.6,0.3s-13.8,6.8-14.3,3.5s4.7-8.6,12.2-9.6C47.2,24.2,54.1,27.8,54.5,31.1z"
		/>
	<path fill="#EDAA80" d="M42.5,53.2c-0.3-0.9,2.2-0.3,5.2-1.2c3.1-0.9,5.6-3.1,5.9-2.2c0.3,0.9-1.8,2.8-4.8,3.7
		C45.7,54.4,42.8,54.1,42.5,53.2z"/>
	<path fill="#EC8554" d="M50.1,37.6c0.2,0.9-2.8,0.1-6.9,0.9c-4.1,0.7-7.8,2.7-7.9,1.8c-0.2-0.9,2.8-2.7,6.9-3.4
		C46.3,36.1,49.9,36.7,50.1,37.6z"/>
	<path fill="#EC8554" d="M28.4,44.1c0.5-0.7,1.8,2.6,5.2,5c3.2,2.8,8.9,1.6,8.5,2.8c-0.5,0.7-5.5,1.3-8.9-1
		C29.7,48.6,27.6,45.1,28.4,44.1z"/>
	<path fill="#A56219" d="M59.6,19.2c-0.1,0-0.5,0.4-0.2-0.3c0.2-1.9-1.1-1.4-2.3,0.2c-0.8,0.6,0.7-2.1-0.3-2.3
		c0.8-1.2,1.3-2,0.6-1.5c-0.2,0-0.6,0.5-0.2-0.3c0.2-2.2-1.3-1.6-2.7,0.2c-1,0.6,1-3-0.8-2.8c-1.1,0.4-3.1,2.4-0.7-1.2
		c0.7-1.6-3.9-0.4-3.5,2.4c-0.8,0.6-1.5,1.1,0.3,1.6c0.1,0.1,0.3,0.2,0.2,0.4c-0.7,1.4-0.8,3,0.5,2.2l1.4-1c1.1-0.4-0.9,2.1-1.2,3.4
		c0.1,1,1.5-0.6,2.1-1c0.1,0,0.1,0,0.2,0.1c0,0,0.1,0,0.1,0.1l0,0c-0.2,0.5-0.3,0.9-0.3,1.3c-0.2,0.8,0,1.4,0.8,1l1.2-0.9
		c1-0.4-0.8,1.8-1.1,2.9c0.1,1.2,2.4-1.9,2.2-0.8c-0.4,1.2-0.4,2,0.4,1.3C57.8,22.4,60.8,18.2,59.6,19.2z"/>
	<path fill="#814716" d="M27.9,15.9c-1.3-1.9-3-2.4-2.5-2.9c0.6-0.4,3.1,0,4.4,1.9s0.9,4.5,0.3,4.9C29.6,20.3,29.2,17.8,27.9,15.9z"
		/>
	<path fill="#BD8043" d="M25.8,18.4c-1.4-1.4-2.9-1.7-2.5-2.1c0.3-0.3,2.3-0.1,3.7,1.3c1.4,1.4,1.8,3.4,1.5,3.7
		C28.2,21.6,27.2,19.7,25.8,18.4z"/>
	<path fill="#BD8043" d="M54.4,18.2c1-1.1,1-2.3,1.4-2c0.3,0.3,0.5,1.9-0.5,3s-2.6,1.3-3,1C52,19.9,53.4,19.3,54.4,18.2z"/>
	<path fill="#BD8043" d="M47.3,23.3c-1.7-0.5-3-0.2-2.8-0.7c0.1-0.4,1.8-1.1,3.5-0.6s2.8,2.1,2.6,2.5C50.5,25,49,23.8,47.3,23.3z"/>
	<path fill="#BD8043" d="M29.5,25c-1.6,1.4-2.1,2.8-2.4,2.4c-0.3-0.3,0.2-2.3,1.8-3.7c1.6-1.4,3.7-1.7,4-1.3
		C33.1,22.8,31.1,23.6,29.5,25z"/>
	<path fill="#F4BE97" d="M41.2,31c-1.5,0.3-2.3,1.1-2.4,0.7c-0.1-0.5,0.9-1.8,2.3-2.1c1.5-0.3,2.9,0.7,3,1.1
		C44.2,31.1,42.6,30.7,41.2,31z"/>
	<path fill="#F6C99C" d="M19.1,37.1c-1.1-0.5-2.1-0.2-1.9-0.6c0.2-0.4,1.6-1,2.7-0.5s1.5,2,1.3,2.4C21,38.7,20.2,37.6,19.1,37.1z"/>
	<path fill="#F6C99C" d="M63.7,35.5c-0.7,1-0.6,2-1,1.7s-0.7-1.7,0-2.7s2.3-1.1,2.6-0.8C65.7,34,64.4,34.5,63.7,35.5z"/>
	<path fill="#F6C99C" d="M38.1,24.7c-2.8,0.5-4.3,2.1-4.4,1.3c-0.2-0.9,1.6-3.5,4.4-4s5.5,1.3,5.6,2.2C43.9,25,40.9,24.2,38.1,24.7z
		"/>
	<path fill="#F6C99C" d="M40.1,38c-6,1.6-9.4,3.9-9.6,3c-0.2-0.9,3.9-4.3,9.9-5.9c6-1.6,11.5-0.7,11.8,0.1
		C52.4,36.2,46.1,36.5,40.1,38z"/>
	<path fill="#D98D47" d="M32.2,31.4c-2.4,0.8-3.6,2.4-3.9,1.7c-0.2-0.7,1.1-3,3.6-3.8c2.4-0.8,5,0.2,5.3,0.9
		C37.3,30.8,34.6,30.6,32.2,31.4z"/>
	<path fill="#D98D47" d="M49.7,30.3c-2.5-0.4-4.3,0.3-4.2-0.4c0.1-0.7,2.4-2.1,5-1.7c2.5,0.4,4.3,2.6,4.2,3.3
		C54.6,32.2,52.2,30.7,49.7,30.3z"/>
	<path fill="#BD8043" d="M40.9,14.4c-0.3,1.4,0.1,2.5-0.3,2.4c-0.4-0.1-1.3-1.5-1-2.9s1.7-2.3,2.2-2.2C42.3,11.7,41.3,13,40.9,14.4z
		"/>
	<path fill="#BD8043" d="M31.9,12.7c-1.3-1.9-3-2.4-2.5-2.9c0.6-0.4,3.1,0,4.4,1.9s0.9,4.5,0.3,4.9C33.6,17.1,33.2,14.6,31.9,12.7z"
		/>
	<path fill="#BD8043" d="M19.3,21.3c-2.9-1.4-5.3-1.4-5-2c0.3-0.7,3.4-1.2,6.4,0.3c2.9,1.4,4.6,4.3,4.3,4.9
		C24.6,25.1,22.2,22.7,19.3,21.3z"/>
	<path fill="#BD8043" d="M46.7,15c0.4-2.3-0.4-3.9,0.3-3.8c0.7,0.1,2.2,2.2,1.7,4.5c-0.4,2.3-2.6,3.8-3.3,3.7
		C44.8,19.2,46.3,17.2,46.7,15z"/>
	<path fill="#D28941" d="M37,32.1c0.1,0.4-0.3,0.8-0.9,1.1c-0.6,0.2-1.2,0.1-1.4-0.3c-0.1-0.4,0.3-0.8,0.9-1.1
		C36.3,31.5,36.9,31.7,37,32.1z"/>
	<path fill="#D28941" d="M48.2,32.4c-0.1,0.4-0.6,0.6-1.3,0.5c-0.7-0.1-1.1-0.5-1.1-0.9c0.1-0.4,0.6-0.6,1.3-0.5
		C47.8,31.6,48.3,32,48.2,32.4z"/>
	<path fill="#D47E1A" d="M53.1,33.2c-0.1,0.4-0.6,0.6-1.3,0.5c-0.7-0.1-1.1-0.5-1.1-0.9c0.1-0.4,0.6-0.6,1.3-0.5
		S53.2,32.8,53.1,33.2z"/>
	<path fill="#955841" d="M57,40.8c0,4.4-6.6,10.2-13.2,9.7c-6.6,0-13.6-1.9-13.6-5.5c-0.1-3.5,6.1-6.1,14.5-7.2
		C51.3,37.8,57,37.2,57,40.8z"/>
	<path fill="#D96324" d="M46.8,48.2c0,2.5-0.6,4.1-5.5,4.1s-11-4-11-6.5s5.2-1.2,10.1-1.2S46.8,45.7,46.8,48.2z"/>
	<path fill="#EE774B" d="M45.3,49.5c0,1.4-2.2,2.5-4.9,2.5s-4.9-1.1-4.9-2.5s2.2-2.5,4.9-2.5C43.2,47.1,45.3,48.2,45.3,49.5z"/>
	<path fill="#EC8680" d="M48.6,34.6c-0.1-2.2,2.3-4.1,5.3-4.3c3-0.1,6.2,2.8,6.3,5s-3,2.9-6,3C51.2,38.5,48.7,36.8,48.6,34.6z"/>
	<path fill="#F0AA9D" d="M53.8,31.9c0.2-0.7,1.4-1,2.6-0.6c1.2,0.4,2,1.2,1.8,2c-0.2,0.7-1.4,1-2.6,0.6
		C54.4,33.5,53.6,32.6,53.8,31.9z"/>
	<path fill="#EC8680" d="M34.1,35.9c0.8,2.5-1,5.3-4,6.3s-7.3-1.3-8.1-3.8c-0.8-2.5,2.1-4.1,5.1-5.1C30.1,32.2,33.2,33.4,34.1,35.9z
		"/>
	<path fill="#F0AA9D" d="M28.6,34.7c0.3,0.7-0.5,1.7-1.8,2.2c-1.3,0.4-2.5,0.2-2.8-0.5c-0.3-0.7,0.5-1.7,1.8-2.2
		C27.1,33.7,28.3,33.9,28.6,34.7z"/>
	<path fill="#D47E1A" d="M30,35.6c0,0.4-0.5,0.7-1.2,0.7s-1.2-0.3-1.2-0.7c0-0.4,0.5-0.7,1.2-0.7C29.4,34.9,30,35.2,30,35.6z"/>
	<path fill="#D47E1A" d="M33.8,35.1c0.1,0.4-0.3,0.9-0.9,1.1c-0.6,0.2-1.2,0.1-1.4-0.3c-0.1-0.4,0.3-0.8,0.9-1.1
		C33.1,34.6,33.7,34.7,33.8,35.1z"/>
	<path fill="#12100B" d="M19.3,24.3l-0.5,0.4c0.9,0.7,2,0.8,3.1,0.4C21.2,24.4,20.3,24.1,19.3,24.3z M46.4,29.4
		c-1.1,0.5-0.7,0.5-0.5,0.5c2.9-0.5,5.4,0.5,8.2,0.7c0.2,0,0.4,0,0-0.3C51.7,29,49.2,28.5,46.4,29.4z M46,32.3
		c0,0.3,0.4,0.5,0.9,0.5s0.9-0.2,0.9-0.5s-0.4-0.5-0.9-0.5S46,32,46,32.3z M37,39c-6.6,3.1-9.6,4.4-10.9,4.7
		c-0.9,0.2-0.5,0.7,0.4,0.6c1.8-0.4,2.7,0.6,2.7,0.8c2.1,5.1,5.9,7.5,11.2,7.4c9-0.3,14.7-4,17.1-11.2C58.6,36.6,44.4,35.7,37,39z
		 M45.1,50.3c-8,4.3-16.4-4.3-13.9-5.3c3-0.4,5.8,0.1,8.4,1.4c0.5,0.4,1.3,0.6,0.9,0.1c-0.5-0.6-1.3-1.1-2.1-1.5
		c-0.4-0.2,0.1-0.4,0.7-0.3c1.7,0.1,3.4,0.4,5.1,0.9C46.5,46.4,46.7,49.4,45.1,50.3z M49.5,49.1c-0.6,0.3-1.1,0.5-1.7,0.7
		c-0.5,0.1-0.8-0.1-0.7-0.4c0.1-0.8,0.1-2-0.5-3c-0.4-1,1.2,0.4,2.8,1.7C49.8,48.6,49.7,49,49.5,49.1z M56.5,40.6
		c-0.2,3-1.8,5.4-4.6,7.3c-1,0.6-1.7,0.6-2,0.1c-0.8-1-2.5-2.8-5.4-3.2c-5-0.3-9.2-0.5-13.6-1C38.4,37.2,55.5,37.2,56.5,40.6z
		 M51.1,33.1c0,0.3,0.4,0.5,0.9,0.5s0.9-0.2,0.9-0.5s-0.4-0.5-0.9-0.5C51.5,32.5,51.1,32.8,51.1,33.1z M62.2,33.6
		c-0.7-3.1-1.9-5.9-3.6-8.5c-0.1-0.1-0.1-0.3,0-0.4c1.2-0.4,1.6-1.1,1.4-2c0-0.1-0.1-0.2-0.1,0c-0.2,1-0.8,1.4-1.4,1.8
		c-0.1,0.1-0.4,0-0.5-0.1c-1.2-1.5-2.5-2.8-4.1-3.9c-0.1-0.1-0.3-0.3-0.1-0.4c0.8-0.4,1.2-1,1.1-1.9c0-0.1,0-0.3-0.2-0.2
		c-0.7,0.4-1.1,1-1.4,1.7c-0.1,0.2-0.3,0.2-0.4,0.1c-0.6-0.4-1.2-0.7-1.8-1c0.1-0.1,0.1-0.2,0.2-0.3c0.6-0.9,1.6-3.3,1.2-3
		c-1,0.7-1.6,1.6-1.8,2.8c0,0.1,0,0.1,0,0.2c-1-0.5-2.1-1-3.2-1.3c-0.1,0-0.2-0.3-0.1-0.5c0.6-0.8,0.7-1.6,0.4-2.7
		c0-0.2-0.2-0.4-0.4-0.2c-0.4,0.9-0.6,1.8-0.4,2.8c0,0.1-0.1,0.4-0.2,0.3c-0.8-0.2-1.6-0.4-2.4-0.6c-0.5-0.3-0.3-1.1-0.2-2
		c0.1-0.8-0.6,0.5-0.8,1.4c-0.1,0.4-0.5,0.4-0.5,0.4L41.1,16c-0.5-0.1-0.9-0.5-0.8-1.1c0.1-2,0.2-4,1.7-5.3h-0.3
		c-1.6,1.4-2.4,3.3-2.2,5.6C39.6,15.9,39,16,39,16l-0.9,0.1c-0.2,0-0.4,0-0.7-0.5c-0.9-1.3-1.1-2-1-2.5c0-0.1-0.1-0.2-0.1-0.1
		c-0.4,1-0.1,2,0.2,2.8c0.2,0.4-0.2,0.5-0.2,0.5l-0.9,0.1c0,0-0.4,0-0.6-0.5c-0.5-1.5-1.5-2.4-2.2-3c-0.1-0.1-0.2,0-0.1,0.1
		c0.8,1.2,2.3,3.1,1.5,3.6c-3.1,0.8-5.8,2.3-8.1,4.5c-0.6,0.5-0.7,0.3-0.8,0.1c-0.5-0.7-1.2-1.1-2-1.3c-0.8-0.2,2.2,1.3,1.8,2.3
		C22.2,26.4,21,31,21.3,36c-1.1-2.1-4.4-2.4-4.7,0.9c0.1,3.4,2.2,4.6,4.4,3.2c0.4-0.2,0.6,0.3,0.7,0.7c0.7,4.7,2.5,8.8,5.9,12.5
		c3.3,5.8,29.6,17.3,35.3-14.8c1.6,0,2.3-0.9,2.8-2C66.8,32.3,63.2,32.8,62.2,33.6z M19,39.9c-2.6-0.8-2.9-4.8,0.3-4.4
		c1.1,0.3,1.5,0.8,2,1.2c0,1,0.1,2,0.2,3C20.8,39.9,19.4,40.1,19,39.9z M60.4,45.6c-6.5,20-27.4,11.6-28.8,10.3
		C21.2,48,19.3,35.3,25.4,22.6c2.4-3.7,8.5-6.2,14.1-5.7c4.8,0.3,10.2,1.4,13.9,4.8C60.7,28.2,63,36.2,60.4,45.6z M62.8,37.9
		l-0.3-2.8c0.1-1.7,1.8-1.6,2.2-1.2C66.2,36,65.1,38.1,62.8,37.9z M23.9,11.1c1.1,0.8,2.1,1.8,3.1,3.1c0.9,1.1,1.7,2.2,2.4,3.1
		c0.6,0.7,0.7,0.6,0.5-0.3c-0.8-2.9-3.1-4.8-6-6C23.7,10.8,23.6,10.9,23.9,11.1z M22.9,23.4c-3.3-3.6-5.9-3.9-7.5-3.9
		c-0.5,0-0.2,0.2,0,0.4l7.5,3.9C22.8,23.7,23.2,23.9,22.9,23.4z M57.4,23c1-0.6,1.5-1.6,1.7-2.7c0-0.1,0-0.3-0.2-0.2
		c-1.1,0.5-1.7,1.4-1.7,2.7C57.2,22.9,57.3,23.1,57.4,23z M25.7,17.6c-0.8-0.3-1-0.2-0.5,0.2c0.7,0.6,1.4,1.1,2.3,1.4
		c0.1,0,0.2,0.1,0.1-0.2C27.1,18.4,26.5,18,25.7,17.6z M32.4,35c-0.4,0.2-0.6,0.5-0.5,0.7s0.5,0.3,0.8,0.1c0.4-0.2,0.6-0.5,0.5-0.7
		C33.2,34.9,32.8,34.9,32.4,35z M28.6,35.3c-0.3,0.1-0.6,0.4-0.5,0.6s0.4,0.3,0.8,0.1c0.3-0.1,0.6-0.4,0.5-0.6
		C29.2,35.2,28.9,35.1,28.6,35.3z M51.6,50.7c-2.6,1.3-5.3,1.9-7.8,2.4c-0.3,0.1-0.3,0.2,0,0.2c2.8,0.1,5.6-0.5,8.3-2.1
		C53.5,50.2,52.9,49.9,51.6,50.7z M29.2,31.3c0.6-0.4,1.1-1,1.9-1.3c0.5-0.3,0.3-0.3,0.2-0.3c-0.9,0.2-1.6,0.7-2.2,1.4
		C29.1,31.2,29,31.4,29.2,31.3z M27.7,26.8c2.6-2.8,5.5-4.6,3.7-4.2c-1.8,0.7-3.3,1.5-4,3.7C27.2,27.2,27.4,27.2,27.7,26.8z
		 M47.1,28.3c-0.6,0.4-0.2,0.7,0.2,0.4c0.5-0.3,1.9-0.5,3.3-0.3c0.2,0,0.1-0.2-0.1-0.3C49.5,27.6,48.2,27.5,47.1,28.3z M29.2,32.9
		c-0.6,0.9-0.5,0.9,0.2,0.3c1.8-1.4,3.4-2.4,5.7-2.8c1.3-0.3,1-0.4,0.8-0.5C33.5,29,30,31.8,29.2,32.9z M39.4,31.3
		c1.2-0.6,2.1-0.6,3.6-0.1c0.8,0-0.2-1.5-1.7-1.3c-1,0.1-1.8,0.6-2.2,1.3C39.1,31.3,39.1,31.4,39.4,31.3z M45.7,22.5
		c1.6,0.2,2.4,0.8,3.5,1.4c0.2,0.2,0.5,0.1,0.3-0.2c-0.7-0.9-1.6-1.6-3.2-1.6C45.3,22,45.4,22.6,45.7,22.5z M35.3,32.7
		c0.1,0.2,0.5,0.3,0.9,0.1c0.4-0.2,0.6-0.5,0.5-0.7c-0.1-0.2-0.5-0.3-0.9-0.1C35.4,32.1,35.2,32.5,35.3,32.7z"/>
</g>
<path fill="#FFFFFF" d="M35.6,34.8c0,0.4-0.4,0.8-0.9,0.8s-0.9-0.4-0.9-0.8c0-0.5,0.4-0.8,0.9-0.8S35.6,34.4,35.6,34.8z"/>
<path fill="#FFFFFF" d="M44.5,34.8c0,0.4-0.4,0.8-0.9,0.8s-0.9-0.4-0.9-0.8c0-0.5,0.4-0.8,0.9-0.8S44.5,34.4,44.5,34.8z"/>
</svg>
