<?xml version="1.0" encoding="utf-8"?>
<svg version="1.1" xmlns="http://www.w3.org/2000/svg" xmlns:xlink="http://www.w3.org/1999/xlink" x="0px" y="0px"
	 viewBox="0 0 80.8 68.9" enable-background="new 0 0 80.8 68.9" xml:space="preserve">
<g>
	<path fill="#F6DABD" d="M62.4,30.6c0-1.9-1.3-3.5-3-3.5c-0.2,0-0.3-0.3-0.3-0.5C56.8,15,47.6,7.9,39,7.6c-8.4,0-14,5.8-16.4,16.9
		c-0.1,0.5-0.2,1.7-1.1,1.6c-1.7,0-3,1.4-3.1,3.3c0,1.9,0.9,3.1,2.4,3.5c0.2,0,0.4,0.8,0.3,1.2c0,15.3,8.7,27.7,19.4,27.7
		c10.5,0,18.7-11.9,19.1-26.7c0-0.3,0.1-1.1,0.9-1.3C61.6,33.4,62.4,32.1,62.4,30.6z"/>
	<path fill="#B7B09B" d="M36,14.5c-3,3.1-3.9,6.1-4.5,5.4c-0.7-0.6,0-4.7,3-7.8s7.2-4.1,7.8-3.5C43,9.2,39,11.3,36,14.5z"/>
	<path fill="#B7B09B" d="M40.5,15.2c-2.4,3-2.4,6.1-3.4,5.2c-1-0.8-1.6-5.2,0.8-8.1c2.4-3,6.9-3.4,7.9-2.6
		C46.8,10.6,42.9,12.3,40.5,15.2z"/>
	<path fill="#F8C893" d="M53.3,25.7c-0.1,3.3-5.2,5.8-11.5,5.7c-6.3-0.1-11.3-2.9-11.3-6.2c0.1-3.3,5.2-5.8,11.5-5.7
		C48.4,19.6,53.4,22.4,53.3,25.7z"/>
	<path fill="#F4C6AB" d="M36.7,35.2c0,3-2.7,5.5-6.1,5.5s-6.1-2.5-6.1-5.5s2.7-5.5,6.1-5.5S36.7,32.1,36.7,35.2z"/>
	<path fill="#F4C6AB" d="M57,37.5c0,3.1-2.7,5.5-6.1,5.5s-6.1-2.5-6.1-5.5c0-3.1,2.7-5.5,6.1-5.5C54.3,31.9,57,34.4,57,37.5z"/>
	<path fill="#955841" d="M43.2,45.4c-0.6,2.6-2.7,4.4-4.7,4c-2.1-0.4-3.3-2.9-2.8-5.5c0.6-2.6,2.7-4.4,4.7-4
		C42.5,40.3,43.7,42.7,43.2,45.4z"/>
	<path fill="#DBECF6" d="M42.4,25.8c0,2.9-2.2,5.3-4.9,5.3c-2.7,0-4.9-2.4-4.9-5.3s2.2-5.3,4.9-5.3S42.4,22.8,42.4,25.8z"/>
	<path fill="#DBECF6" d="M51.5,26.5c0,2.9-2.2,5.3-4.9,5.3c-2.7,0-4.9-2.4-4.9-5.3s2.2-5.3,4.9-5.3C49.3,21.2,51.5,23.6,51.5,26.5z"
		/>
	<path fill="#F9D7C6" d="M32.8,32.2c-0.1,0.8-1.1,1.4-2.4,1.3c-1.3-0.1-2.2-0.9-2.2-1.7c0.1-0.8,1.1-1.4,2.4-1.3
		C31.9,30.7,32.8,31.4,32.8,32.2z"/>
	<path fill="#F9D7C6" d="M53.1,34.4c0,0.8-1,1.5-2.3,1.5s-2.3-0.7-2.3-1.5s1-1.5,2.3-1.5S53.1,33.5,53.1,34.4z"/>
	<path fill="#BEE1F4" d="M45.5,30c0,0.6,0.1,1.2,0.3,1.8c0.4,0.1,0.7,0.2,1.1,0.2c2.6,0,4.7-2.6,4.7-5.7c0-0.5-0.1-1-0.1-1.4
		c-0.3-0.1-0.7-0.1-1-0.1C47.7,24.7,45.5,27.1,45.5,30z"/>
	<path fill="#BEE1F4" d="M36.3,28.7c0,0.6,0.1,1.2,0.3,1.8c0.4,0.1,0.7,0.2,1.1,0.2c2.6,0,4.7-2.6,4.7-5.8c0-0.5-0.1-1-0.1-1.4
		c-0.3-0.1-0.7-0.1-1-0.1C38.5,23.4,36.3,25.8,36.3,28.7z"/>
	<path fill="#FFFFFF" d="M39.7,21.5c-0.2,0-0.4,0-0.6,0c-2.2,0-4,1.8-4,4.1c0,0.2,0,0.4,0,0.6C35.4,23.7,37.3,21.8,39.7,21.5z"/>
	<path fill="#FFFFFF" d="M48.5,22.7c-0.2,0-0.4,0-0.6,0c-2.2,0-4,1.8-4,4.1c0,0.2,0,0.4,0,0.6C44.2,24.9,46.1,23,48.5,22.7z"/>
	<path fill="#F4C599" d="M44.8,32.7c0,0.9-1.4,1.7-3.1,1.7s-3.1-0.7-3.1-1.7c0-0.9,1.4-1.7,3.1-1.7C43.4,31,44.8,31.7,44.8,32.7z"/>
	<path fill="#12100B" d="M61.5,29.9c-0.3-1.5-1.6-2.5-3-2.4c-1.6-15-21-27.7-29.4-15.8c-3,4.2-5.1,8.7-6.4,13.5
		c-1.8,0.2-0.7,1.1-1.2,1.2c-2.3,0-4.4,4.4-1.1,6.2c0.9,0.3,1,1.6,1,2.2c-0.7,15.1,9,23.7,12.5,25.2c15.4,6.2,25.6-12.5,25.4-24.7
		c0-0.6-0.1-1.7,0.7-2.1C61.1,32.6,61.8,31.3,61.5,29.9z M21.5,32.3c-2.4-0.6-2.3-5,0.7-5C23.6,27.4,22.2,32.8,21.5,32.3z
		 M47.7,11.1c3.8,2.4,6.5,8.5,8,14.4c0.1,0.4-0.2,1-0.4,1c-0.9-0.3-1.8-0.5-2.5-0.6c-0.5-0.1-1.4-1-1.5-1.3
		c-0.8-1.8-2.4-3.1-4.3-3.1c-2,0-3.7,1.3-4.4,3.3c-0.3-2.4-2-4.3-4.1-4.5c0.2-0.1,0.3-0.3,0.5-0.6c0.3-4.1,2.1-7.2,5.5-9.3
		C45.3,9.8,47,10.6,47.7,11.1z M47,31.5c-2.4,0-4.3-2.1-4.3-4.8s1.9-4.8,4.3-4.8C51,21.7,52.4,31.2,47,31.5z M38.2,20.7
		c2.3,0,4.1,2.1,4.1,4.8c0,0.1,0,0.2,0,0.3c0,0.2-0.1,0.5-0.1,0.7c-0.4,2.2-2,3.8-4,3.8C33.8,30.4,33.3,20.8,38.2,20.7z M30.6,11.2
		c1.8-2.3,6.2-3.1,8.8-2.5c0.4,0,0.5,0.3-0.1,0.6c-3.7,1.4-6.1,4.1-7.1,8.1c-0.1,0.8,0.1,1.1,0.7,0.6c1.9-4.3,5-7.1,9.4-8.3
		c0.4-0.1,0.5,0.1,0.1,0.4c-2.9,1.8-5.1,4.2-5.1,8.1c0.1,1.2,0.3,1.8,0.5,2c-2,0.1-3.7,1.8-4.2,4.1c-0.1,0.5-0.7,1.1-1.3,1
		c-1.8-0.1-4.9-0.1-6.8-0.1c-1.3,0-1.2-0.9-1.1-1.3C25.9,19.6,27.9,15.4,30.6,11.2z M57.3,38.3c-0.3,8.3-9,27.9-23.6,20
		c-7.4-4.9-11.1-12.2-11-22.1c0-3.2,0.4-6.3,1-9.2c0.1-0.3,0.4-1,1.3-0.9c0.7,0.1,4.9,0,7.2-0.1c0.7,0,1.6,0.7,1.7,1.1
		c0.6,2.2,2.3,3.7,4.3,3.7c1.8,0,3.4-1.3,4.1-3.2c0.4,2.5,2.3,4.5,4.7,4.5c2.5,0,4.5-2.1,4.7-4.8c0-0.2,0.1-1,0.7-0.8
		c0.5,0.2,2,0.7,3,1c0.7,0.2,1,1,1.1,1.4C57.4,33.2,57.6,36.8,57.3,38.3z M59.6,32c-0.6,0.5-0.7-0.2-0.7-0.5c0-0.9-0.1-1.7-0.2-2.5
		c0-0.3,0.1-0.9,0.6-0.5C61.3,29.5,60.2,31.5,59.6,32z M40.6,39.9c-4.7,0.1-5.6,4.7-4.8,8c1.5,2.5,6.1,0.8,7.7-2.9
		C44.1,43.4,44.5,40.2,40.6,39.9z M39.4,48.1c-2.4,0.5-2.2-1-2.4-2.3c-0.2-1.8-0.3-3.2,1.6-4.7C43.3,38.6,43.6,45.5,39.4,48.1z
		 M41.8,31.3c-1.1-0.1-2.1,0.2-2.1,0.8c-0.1,0.6,0.7,0.2,1.9,0.3c1.1,0.1,2.5,0.9,2.5,0.4C44.1,32.2,42.9,31.4,41.8,31.3z"/>
	<path fill="#12100B" d="M48,19.6c-0.3,0.4,0.7-0.1,1.3,0.3c0.6,0.2,1.2,1.4,1.5,1.9c0.1,0.2,0.2,0.1,0.2-0.1
		c-0.1-0.6-0.9-1.9-1.4-2.2C48.9,19.1,48.3,19.2,48,19.6z"/>
	<path fill="#12100B" d="M36.4,18.4c0.2,0.4-0.7-0.2-1.4,0.2c-0.6,0.1-1.5,1.4-1.9,1.8c-0.2,0.2-0.2,0.1-0.1-0.1
		c0.3-0.7,1.4-1.9,1.9-2.2C35.6,17.8,36.2,18,36.4,18.4z"/>
	<path fill="#12100B" d="M39.9,25.5c0,1.2-0.6,2.1-1.4,2.1c-0.7,0-1.4-0.9-1.4-2.1s0.6-2.1,1.4-2.1S39.9,24.4,39.9,25.5z"/>
	<path fill="#12100B" d="M47.7,26c0,1.2-0.6,2.1-1.4,2.1c-0.7,0-1.4-0.9-1.4-2.1s0.6-2.1,1.4-2.1S47.7,24.8,47.7,26z"/>
</g>
</svg>
