<?xml version="1.0" encoding="utf-8"?>
<svg version="1.1" xmlns="http://www.w3.org/2000/svg" xmlns:xlink="http://www.w3.org/1999/xlink" x="0px" y="0px"
	 viewBox="0 0 80.8 68.9" enable-background="new 0 0 80.8 68.9" xml:space="preserve">
<g>
	<path fill="#DDAA7E" d="M51.9,45c-3.8,0.8-0.7-3.2-1.3-6.2c-2.6-11.6-12-19.3-22.3-20.4c-6.7,0-12,2.4-15.5,6.3
		c-0.6-0.7-1.6-1.1-2.6-1.1c-5.2,0.8-2.7,5.7-0.7,6.9c0.7,0.4,0.3,1.7,0,2.4c-0.8,1.8-0.8,3.9-0.8,6.1C9,50.9,17.6,63.4,30.4,63.4
		c8.3,0,13.2-5,17.2-11c1.5-1.7,2.3,0.3,5.6,0C59.7,50.4,55.1,43.4,51.9,45z"/>
	<path fill="#D59768" d="M31.1,62.4c-2-1.8,4.4-3.8,9.2-9c4.8-5.3,6.3-11.8,8.3-10s-0.4,7.5-5.2,12.8C38.6,61.3,33.1,64.1,31.1,62.4
		z"/>
	<path fill="#D59768" d="M36.1,41.3c-1.2,1.8-6.4,0.6-11.6-2.7s-8.5-7.5-7.4-9.4c1.2-1.8,6.4-0.6,11.6,2.7
		C34,35.2,37.3,39.4,36.1,41.3z"/>
	<path fill="#D59768" d="M12.7,27.7c-0.4,0.5-0.9-0.7-1.9-1.5c-1.1-0.8-2.3-1-1.9-1.5c0.4-0.5,1.9-0.8,3,0
		C12.9,25.6,13.1,27.2,12.7,27.7z"/>
	<path fill="#D59768" d="M54.7,47.6c0.1,0.6-1.1,0.2-2.4,0.4c-1.3,0.2-2.3,1-2.4,0.4c-0.1-0.6,0.7-2,2-2.2
		C53.2,46.1,54.6,47,54.7,47.6z"/>
	<path fill="#80383D" d="M27.5,28.3c-0.1,0.3-0.8-0.5-1.9-0.7c-1-0.2-2,0.3-1.9-0.1c0.1-0.3,1.2-1.2,2.2-1
		C27,26.7,27.6,27.9,27.5,28.3z"/>
	<path fill="#80383D" d="M33.1,35.3c-0.3,0.1-0.1-1-0.4-2c-0.4-1-1.3-1.5-1-1.6s1.7,0.3,2,1.3C34.1,34,33.4,35.2,33.1,35.3z"/>
	<path fill="#EB817D" d="M31.3,45.1c0.9,2.9,5.2,4.9,9.4,4.4c4.3-0.5,7.4-5,6.5-8c-0.9-2.9-5.6-3.2-9.9-2.7
		C33.1,39.4,30.4,42.2,31.3,45.1z"/>
	<path fill="#EB817D" d="M12.1,30.5c-1.7,1.1-2.9,6.1-1.9,8.7s5.6,2.7,7.2,1.6c1.7-1.1,1-5.7,0-8.2C16.5,30,13.8,29.4,12.1,30.5z"/>
	<path fill="#D59768" d="M45.3,33.2c-1.5,2.1-4-3.6-9.4-7.4s-11.7-4.3-10.2-6.4s7.1-0.7,12.5,3.1S46.8,31.1,45.3,33.2z"/>
	<path fill="#EBC09F" d="M23.4,38.7c-0.2,0.6-0.8-0.4-2-0.8c-1.1-0.4-2.3,0-2.1-0.7c0.2-0.6,1.6-1.5,2.7-1.1
		C23.2,36.6,23.7,38.1,23.4,38.7z"/>
	<path fill="#F09F9E" d="M40.1,41.4c0,0.8-1,1.4-2.2,1.4s-2.2-0.6-2.2-1.4c0-0.8,1-1.4,2.2-1.4C39.1,39.9,40.1,40.6,40.1,41.4z"/>
	<path fill="#F09F9E" d="M17.1,34.5c-0.5,0.6-1.7,0.4-2.6-0.4s-1.3-1.9-0.8-2.5c0.5-0.6,1.7-0.5,2.6,0.3
		C17.3,32.7,17.6,33.9,17.1,34.5z"/>
	<path fill="#12100B" d="M51.8,48c0.8-0.1,1.4,0.1,1.4-0.1c0-0.2-0.7-0.7-1.6-0.5c-0.8,0.1-1.3,0.5-1.2,0.8
		C50.4,48.4,51,48.1,51.8,48z"/>
	<path fill="#12100B" d="M11.3,26.5c0.4,0.7,0.4,1.3,0.6,1.2c0.2-0.1,0.3-0.9-0.1-1.6c-0.4-0.7-1-1-1.2-0.9
		C10.4,25.3,10.9,25.7,11.3,26.5z"/>
	<path fill="#7F3826" d="M40.4,47.1c-0.7,3.4-9.2,9.1-14.2,7.6c-4.7-1.3-8.8-9.2-10-11.1c0.5-2.7,6,5.7,12.6,6.3
		C34,51,41,44.3,40.4,47.1z"/>
	<path fill="#80383D" d="M60.1,35.7c-7.4-1-15.1-9.6-15.4-6.4c-0.2,1.6,1.1,8.9,5.2,12.3c4,2.7,11.9-3.8,11.9-4.8
		c3.7,1.3,16.1,11.2,9.6,2.5c-2.3-2.4,2.5-1.5,2.3-2.4c0.1-0.5-3.4-2.1-3.3-2.7c0.1-0.6,2.4-1.8,2.3-2.4c-0.9-1.4-8.1-1.4-9.1,2.7
		C62.6,34.7,61,35.9,60.1,35.7z M70.9,24.1c-0.3-0.7-4.5-0.5-6.1,2c-1.3,2-2.6,1.5-2.8,1c-0.6-0.2-1.9,0-4.2,0.1
		c-3.3,0.9-1.2-0.6,0.7-1.1c1.3-0.7,2.7-1.1,3.6-1.3c2.5-0.6,1.8,1,5.1-1.9c0.8-0.5,0.1-0.8-1.7-0.7c-0.3,0-0.6-0.4-0.4-0.6
		c3.8-4.7-0.2-4.7-5.5,1.4c0-0.3-0.6,1.6-1.8,1.4c-4.5-0.8-15-3.5-14.6-4.1c0.6-1.2,6.9-1.1,8.3-1.8c2.1,1.7,11.7-3.7,9-6.4
		c-1.9-1.2-5,1.3-6.4,3.7c-1.1,1.4-3.4,1.4-3.6,1.5c-4.2-0.2-9.2,0-11.4-1.6c-0.4-0.2,0.7-0.5,1.5-0.7c1.2-0.6,7.2,0.4,5.7-3.9
		c-3.6-3-7.2,1.3-7.9,1.9c-2.4,0.2-4.6,1-6.4,2c-5,0.5-4.9-1.7-3.5-2.3C32.9,9.8,34,6.3,33,5.6c-0.4-0.3-1.4,0.7-2.1,1.1
		c-1.3,0.9-2.6-0.3-3-0.6c-1.6-1.7-3,2.1-1.8,6C25,12,25,14.6,23.7,14.7c-6.7-0.8-12,3.7-14.5,7.7c-1.3,3.2,3.5,1.2,4.2,3.5
		c2.4-1.9,6.2-5,9.6-6.9c2-1,4.7-0.6,4.6,0c-0.4,2.2,9.1,1.1,9,1.1c-5.4,2.2,5.7,5.1,5.7,5.1c-3.7,0.2,1.2,4.6,9,6.4
		c3.2,0.4,5.3-2.3,8.4-3.3c1-0.6,1.8-0.2,2.3,0c2.7,2,8.4,4.4,5.6,0c-0.3-0.2-0.5-0.6-0.1-0.8C69.4,26.8,70.3,27.1,70.9,24.1z"/>
	<path fill="#E42E12" d="M28.7,13.8c0,1.1-1.9,1.9-3,1.9s-2.2-0.7-2.2-1.8s1-2.2,2.2-2.2C26.8,11.6,28.7,12.7,28.7,13.8z"/>
	<path fill="#5FC5F1" d="M41.5,13.6c0,1.1-0.9,2-2,2s-2-0.9-2-2s0.9-2,2-2S41.5,12.5,41.5,13.6z"/>
	<path fill="#C61A82" d="M54.4,18.1c0,1.1-0.9,2-2,2s-2-0.9-2-2s0.9-2,2-2S54.4,17,54.4,18.1z"/>
	<path fill="#51AD32" d="M61.7,24.6c0,1.1-0.9,2-2,2s-1.8-0.8-1.8-1.9s0.8-1.8,1.9-1.8C60.9,22.9,61.7,23.5,61.7,24.6z"/>
	<path fill="#F9E800" d="M63.3,28.2c0,1.1-0.5,1.4-1.6,1.4s-1.9-0.2-1.9-1.3c0-1.1,0.8-1.6,2-1.6C62.8,26.8,63.3,27.1,63.3,28.2z"/>
	<path fill="#951B80" d="M64,35.9c0,1.1-0.9,2-2,2s-2-0.9-2-2s0.9-2,2-2S64,34.8,64,35.9z"/>
	<path fill="#D53C1B" d="M33.6,50c-0.7,0.5-3.1,2.5-6.8,3.6c-4.6,1.6-6.7-0.3-6.7-2c0-1.6,3.5-3,7.9-3C32.7,48.6,34.8,48.4,33.6,50z
		"/>
	<path fill="#E65162" d="M28.2,52.7c0,0.8-1.6,1.4-3.7,1.4c-2,0-3.7-0.6-3.7-1.4c0-0.8,1.6-1.4,3.7-1.4C26.5,51.3,28.2,52,28.2,52.7
		z"/>
	<path fill="#12100B" d="M26.4,38.9c0.5,0.6,1.4-0.7,2.7-1.9c1.3-1.2,2.7-1.8,2.2-2.4c-0.5-0.6-2.7-0.9-4.1,0.2
		C25.9,36.1,25.9,38.3,26.4,38.9z M72.8,36.7l-2.7-2c-0.9-0.8,3-2.2,2.1-2.7c-7.4-0.8-6.4,0.6-9.3,2.8c-1.2-0.3-2,0.1-2.3,1.1
		c-0.2,1-5.3,0.3-7.6-0.9c-1.6-0.8-3-2.1-4.3-3.9c3.7,0.4,7.2-0.3,10.3-2.3c0.2-0.1,0.9-0.6,1.2-0.2c0.7,0.7,1.7,0.9,3.5,0.7
		c2.4-0.2,5,2.8,4,0.1c-0.2-0.5-1.1-1.6-0.3-2c3-1.3,4.6-3.4,2.5-3.3c-2.6,0.2-4.6,1.5-6.4,3.3c-0.7,0.4-2.2-1.3-3.9,0
		c-2.8,0.5-5.5,1.3-4.1,0.5l2.7-1.7c0.5-0.3,2.1,0.8,3.4-0.7c0.3-0.7,1.1-0.3,1.9-0.5c1.5-0.1,2.6-0.6,3.5-1.7
		c0.5-0.9-2.6-0.3-2.1-0.9c0.5-0.4,1.2-2,1.2-2.3c1-2.7-3.1-0.1-3.9,0.9c-0.7,0.7-1.1,2.1-1.9,2.2c-1.3,0.2-1.8,0.8-2,1.4
		c-0.2,0.5-0.7,0.4-0.9,0.3c-4.7-2.4-9.7-3.6-15-3.7c-0.9,0,0-0.6,0-0.6c2.8-1.6,5.3-1.4,7.9-1.8c0.8,0.9,1.8,1.1,2.9,0.8
		c1-0.3,1.2-1.6,2.1-1.5c2.2-0.4,3.8-1.6,4.8-3.7c0.8-1.8,0.1-2.2-1.3-1.7c-1.8,0.6-3.1,1.7-4.2,3.2c-0.4,0.6-0.8,0.6-1,0.6
		c-1.8-0.1-2.8,0.8-3.1,1.2c-3.8,0.7-7.5,0.2-10.9-1.5c-0.7-0.5,1.3,0,1.9-1c0.1-0.4,0.6-0.3,0.8-0.3c1.4,0,3.1,0,3.9-2.2
		c0.3-1.1-2.7-2.3-4.3-0.5c-0.2,0.5-0.9,1.1-1.3,0.4c-1.1-0.6-1.7,0.3-2.1,1.3c-2.7,0.6-5.7,0.9-8.9,1.2c-0.8,0.1-1.9-0.3-1.4-0.6
		c0.9-2.4,3-3.6,4.1-6.6c0.2-1.4,1.2-3.2-2-0.4c-1,1.2-1,0.8-1.2,0.5c-1.1-2.4-2.8-1.1-3.2,0.5c-0.6,1.2-0.6,2.4-0.1,3.6
		c0.3,0.4-0.8,0.6-1.6,0.8c-0.9,0.3-0.7,0.9-0.5,1.3c0.3,0.4-0.3,0.5-0.6,0.6c-5.2,0.8-9.1,2.9-11.9,6.1c-0.8,0.9-1.5,1.9-2.1,3
		c-2.5,1.5-1.2,6.9,1.3,6.3c0.4-0.1,0.6,0.5,0.3,1.1c-0.4,1.2-0.7,2.5-0.9,3.7c-1.1,6.5,0.4,12.9,4.6,19.1c2.7,4,6.3,6.6,10.9,7.9
		c8.9,2.5,16.4-1.3,23.8-11c1.4,0.7,2.9,1,4.4,1.1c1.9-0.4,2.5-2.7,2.2-4c-0.6-3-3-2.9-4.5-2.4c-1.1,0.5-1-0.7-1-0.7l0.1-2.1
		c0,0,0-1,0.8-1.1c3.7,0.1,6.9-1.2,9.5-3.7c0.5-0.9,1.2,0.7,2.6-0.6c2.7,1.2,5.3,3.4,8,4.8c1.5,0.7,1.6,0.2,1-1
		c-1-1.4-3-3.6-1.9-3.7C71.8,37.3,73.8,37.2,72.8,36.7z M69.2,24.7c0.9,0.1,0.6,0.5-0.2,1l-3.5,1.9c-0.8,0.4,0,0.9,0.5,1.1
		c2.1,1.6-0.3,0.8-2.3,0c-0.3-0.1-0.6-0.4-0.1-0.7C65.1,26.4,66.5,24.7,69.2,24.7z M60.8,27.5c0.7-0.4,2.2,0.5,1.9,0.8
		C61.6,29.5,60,28.1,60.8,27.5z M64.9,20c0.8-0.1-0.1,1.4-1.1,2.6c-0.1,0.2-0.3,0.5,0.1,0.5c3.5,0.6-1.4,1.6-2.2,0.9
		C61.2,23.2,62.4,20.6,64.9,20z M60.7,24.7c-0.3,1.1-1.2,1.4-1.6,0.9C58.2,24.1,60.5,22.9,60.7,24.7z M59,13.6
		c-0.8,2.3-5.1,4.8-4.5,3.3C55.5,14.9,59.7,12.3,59,13.6z M53.6,17.9c-0.3,1.5-2.7,1.2-2.5,0C51.3,17.1,53.9,16.9,53.6,17.9z
		 M45,12.9c-1.3,0.6-2.8,1.7-3.6,1c-0.5-0.2-0.5-0.5-0.3-0.9C42.6,12,46.3,12.3,45,12.9z M53.6,46.6c2.2,0.5,0.8,4.2-0.8,3.7
		C48.8,48.8,49.4,46.6,53.6,46.6z M55.1,29.4c-2.1,0.7-4.2,0.9-6.4,0.6c-0.9-0.2-1.3-0.7-1.7-1l-2.5-2.3c-0.6-0.6-0.2-0.8,1.8,0.3
		c2.8,1.3,5.8,2,8.9,2C55.5,28.9,55.5,29.2,55.1,29.4z M56.4,26.1c-1.4,0.7-2.6,1.9-4.5,1.6c-4.2-1-7.9-2.7-11.3-5.1
		c-0.4-0.3-0.3-0.8,0.1-0.8C47.4,21.6,58.6,25.3,56.4,26.1z M39.6,13.1c0.7-0.5,1.6,0.9,0.5,1.9C39,15.7,38.4,13.7,39.6,13.1z
		 M38,15.5c-1.7,0.2-3-0.1-4.4-0.2c-1.1-0.3,0.3-0.5,3.7-0.5C37.6,14.8,39,15.1,38,15.5z M44.2,18.7c-1.8,0.2-3.5,0.7-4.9,1.8
		c-0.7,0.7-1.7,0.1-2,0c-3.5-1.9-7.1-2.7-10.9-2.2c-1,0.1-1.1-0.1-0.1-0.4c5.7-1.6,11.5-1,18,0.4C45,18.3,45,18.6,44.2,18.7z
		 M27.2,7.7c0.3-0.8,1.1,0.4,1.8,1.5c0.7,0.7,3.3-3.6,2.4-1c-0.4,3-5,5.4-4.9,3.6L27.2,7.7z M25.2,13.5c0.8-0.5,1.5-0.9,2-0.4
		c-0.1,0.6,0,1.2-1.4,1.4C24.8,14.7,24.4,14.5,25.2,13.5z M19,17.4c-2.1,1.2-4.1,3.8-4.6,5.5c-0.2,0.6-0.1,1.2,0.3,0.4
		c1.5-2.9,8.4-7.4,13.8-7.9c0.7-0.1,0.8,0.4,0.1,0.8c-2.2,0.2-14,7.9-14.6,9.1c-0.5,0.4-1-0.3-1-0.4c-0.7-1-1.5-1.4-2.4-1.3
		c-0.2,0-0.4-0.5-0.3-0.8c0.3-0.9,4.9-4.7,8.5-5.7C19.3,16.9,19.4,17.1,19,17.4z M10.9,24.5c1.3,0.2,1.7,0.8,1.9,1.8
		c-0.3,1.1-1,2.9-1.7,2.9C8.8,29.5,6.8,24.5,10.9,24.5z M46.7,51C26.8,76.1,8.3,47.8,10.8,34.9c0.7-3.3,7.9-18.3,20.6-15.2
		C37.1,21,54.3,30.9,46.7,51z M51.4,40.4c-1.7,0.4-2.1-3.9-2.6-6.3c-0.2-0.6-0.1-1,0.4-0.5c1.7,1.7,5.4,4.2,9.9,3.6
		c0.4-0.1,0.5,0.4,0.1,0.7C57,39.6,54.3,40,51.4,40.4z M71.2,41.1l-7.4-4.2c0.5-0.9-0.7-1.8,0.4-2.3c1-1,3.4-3.2,5.7-2.3
		c0.3,0.1,0.7,0.4,0,0.9c-0.7,0.7-1.4,1.4-1,1.7l0,0l2.1,1.5c0.5,0.2-1,0.4-2,0.7C67.5,37.6,72.5,41.6,71.2,41.1z M33.3,34.7
		c0.4-0.1,0.6-0.8,0.4-1.4c-0.2-0.7-0.7-1.1-1.1-1c-0.4,0.1,0.2,0.5,0.4,1.2C33.1,34.2,32.9,34.8,33.3,34.7z M12.1,37L12.1,37
		L12.1,37L12.1,37z M25.6,27.4c0.7,0.1,1.2,0.6,1.2,0.2c0.1-0.4-0.4-0.9-1.1-1s-1.3,0.1-1.4,0.5C24.3,27.6,24.9,27.3,25.6,27.4z
		 M22.2,37.1c0.5,0.8,0.8,1.1,0.9,0.6c-0.3-1.8-2-1.8-2.8-0.7c-0.4,0.7,0,0.8,0.4,0.5C21.1,37.1,21.6,36.5,22.2,37.1z M23.9,33.2
		c1.3-1.1,2.5-1.7,2-2.2c-0.5-0.6-2.6-0.9-3.8,0.2c-1.3,1.1-1.2,3.2-0.7,3.8C21.8,35.5,22.6,34.3,23.9,33.2z M26.5,48.1
		c-6.7-1.6-10.8-5-12.3-11.5c0.1-0.7,1.6-2.2,0.7-1.9c-1.2,0.6-2.2,1.1-2.8,2.4c-0.2,0.9,1.2-1.1,2,0.9c1.3,4.6,3.4,8.7,6.3,12.4
		c-2.1,1.3-0.2,6.2,7.9,5c5.7-0.5,9.9-3.4,12.5-8.5c1.1-1.7,1-1,1.1-0.4c0.2,1.5,0.8,1.3,0.7,0.8c-0.2-1.5-0.3-3.1,0.5-4.3
		c0.1-0.3,0-0.5-0.5-0.1C38.5,47.9,33.2,49.6,26.5,48.1z M19.6,47.4c-0.9-1.9,0.6-0.6,2.4,0.9c0.6,0.6-0.5,1.1-1.1,1.6L19.6,47.4z
		 M24.4,49c2.9,0.5,5.7,1.1,8.7,0.6c0.3-0.1,0.3,0.3,0,0.5c-11.6,6.7-14.8,2-10.5-0.6C22.8,49.4,23.7,49,24.4,49z M26.9,54.2
		c2.9-0.9,5.5-2.3,7.8-4.4c1.6-0.8,3.2-1.9,4.9-2.9c0.5-0.3,0.3,0.3,0.1,0.6C36.7,51.9,32.4,54.3,26.9,54.2z"/>
	<path fill="#12100B" d="M33.7,36c0,0.1-0.8-0.1-1.7-0.2c-0.9-0.1-1.7-0.2-1.7-0.2c0-0.1,0.8-0.2,1.8-0.1C33,35.6,33.7,35.9,33.7,36
		z"/>
	<path fill="#12100B" d="M34.2,36.9c0,0.1-1-0.1-2.2-0.3c-1.2-0.2-2.3-0.2-2.3-0.3s1.1-0.3,2.3-0.1C33.2,36.3,34.2,36.8,34.2,36.9z"
		/>
	<path fill="#12100B" d="M32.5,34c0,0.1-0.6,0.2-1.3,0.5c-0.7,0.3-1.3,0.6-1.3,0.5c0-0.1,0.5-0.5,1.2-0.8C31.8,34,32.5,33.9,32.5,34
		z"/>
	<path fill="#12100B" d="M25.4,29.1c0.1,0-0.2,0.6-0.5,1.3c-0.3,0.7-0.5,1.4-0.5,1.4c-0.1,0,0-0.7,0.3-1.5
		C24.9,29.6,25.3,29.1,25.4,29.1z"/>
	<path fill="#12100B" d="M23.8,28.5c0.1,0-0.1,0.6-0.3,1.4c-0.2,0.8-0.3,1.4-0.3,1.4c-0.1,0-0.1-0.7,0.1-1.5
		C23.4,29.1,23.7,28.5,23.8,28.5z"/>
	<path fill="#12100B" d="M22.3,29.1c0.1,0-0.1,0.6-0.2,1.4s-0.1,1.4-0.2,1.4s-0.2-0.7-0.1-1.5C21.9,29.7,22.2,29.1,22.3,29.1z"/>
	<path fill="#12100B" d="M25.9,38.9c0,0,0.4,0.2,0.9,0.5s0.9,0.5,0.9,0.5s-0.5-0.1-1-0.3C26.2,39.3,25.9,38.9,25.9,38.9z"/>
	<path fill="#12100B" d="M20.1,34c0,0,0.3,0.3,0.6,0.8c0.4,0.4,0.7,0.8,0.6,0.8c0,0-0.4-0.2-0.8-0.7C20.3,34.5,20.1,34,20.1,34z"/>
</g>
</svg>
